<svg width="27" height="22" viewBox="0 0 27 22" fill="none" xmlns="http://www.w3.org/2000/svg">
<path d="M25.6875 0.6875H1.3125C0.793945 0.6875 0.375 1.10645 0.375 1.625V20.375C0.375 20.8936 0.793945 21.3125 1.3125 21.3125H25.6875C26.2061 21.3125 26.625 20.8936 26.625 20.375V1.625C26.625 1.10645 26.2061 0.6875 25.6875 0.6875ZM24.5156 3.93359V19.2031H2.48438V3.93359L1.67578 3.30371L2.82715 1.82422L4.08105 2.7998H22.9219L24.1758 1.82422L25.3271 3.30371L24.5156 3.93359ZM22.9219 2.79688L13.5 10.1211L4.07812 2.79688L2.82422 1.82129L1.67285 3.30078L2.48145 3.93066L12.4893 11.7119C12.7771 11.9355 13.1311 12.0569 13.4956 12.0569C13.8601 12.0569 14.2141 11.9355 14.502 11.7119L24.5156 3.93359L25.3242 3.30371L24.1729 1.82422L22.9219 2.79688Z" fill="#7AAE0C"/>
</svg>
