<svg width="49" height="57" viewBox="0 0 49 57" fill="none" xmlns="http://www.w3.org/2000/svg">
<path d="M1.30567 15.9274V0.119995H7.29467C11.9701 0.119995 14.2855 1.43357 14.2855 4.50599C14.2855 6.3539 13.1501 7.46709 11.035 7.73426L11.0127 7.77879C13.6622 8.04596 14.9535 9.24821 14.9535 11.4523C14.9535 14.4134 12.6825 15.9274 8.18523 15.9274H1.30567ZM5.69167 12.5878H8.34108C9.58786 12.5878 10.5897 12.098 10.5897 10.9848C10.5897 9.82707 9.61012 9.315 8.34108 9.315H5.69167V12.5878ZM5.69167 6.46522H7.76221C9.00899 6.46522 9.92182 5.99767 9.92182 4.97353C9.92182 3.90486 9.03126 3.45959 7.76221 3.45959H5.69167V6.46522Z" fill="#7AAE0C"/>
<path d="M17.2861 15.9274V0.119995H21.6721V12.432H28.5294V15.9274H17.2861Z" fill="#7AAE0C"/>
<path d="M30.6793 0.119995H35.0653V6.37616L39.8743 0.119995H44.7946L39.2732 7.17766L45.1286 15.9274H40.2973L36.4011 10.0052L35.0653 11.675V15.9274H30.6793V0.119995Z" fill="#7AAE0C"/>
<path d="M1.30567 33.3211V17.5137H5.69167V23.614H10.3448V17.5137H14.7308V33.3211H10.3448V27.1317H5.69167V33.3211H1.30567Z" fill="#7AAE0C"/>
<path d="M17.4818 17.5137H21.9123L27.1444 26.5529V17.5137H31.5304V33.3211H26.9663L21.8678 24.7495V33.3211H17.4818V17.5137Z" fill="#7AAE0C"/>
<path d="M39.8602 17.5137C45.159 17.5137 48.1201 20.3635 48.1201 25.4397C48.1201 30.4936 45.2035 33.3211 39.9938 33.3211H34.0493V17.5137H39.8602ZM38.4353 29.8256H39.8602C42.5096 29.8256 43.7119 28.4453 43.7119 25.4174C43.7119 22.3895 42.5096 21.0091 39.8602 21.0091H38.4353V29.8256Z" fill="#7AAE0C"/>
<path d="M7.11656 34.9074C12.4154 34.9074 15.3765 37.7572 15.3765 42.8334C15.3765 47.8873 12.4599 50.7148 7.25014 50.7148H1.30567V34.9074H7.11656ZM5.69167 47.2193H7.11656C9.76597 47.2193 10.9682 45.839 10.9682 42.8111C10.9682 39.7832 9.76597 38.4028 7.11656 38.4028H5.69167V47.2193Z" fill="#E9E9E9"/>
<path d="M17.1557 34.9074H28.8665V38.4028H21.5417V41.0522H28.5993V44.5254H21.5417V47.2193H29.0446V50.7148H17.1557V34.9074Z" fill="#E9E9E9"/>
<path d="M30.574 34.9074H35.0046L38.7449 45.7722L42.463 34.9074H46.9158L41.2162 50.7148H36.2736L30.574 34.9074Z" fill="#E9E9E9"/>
<path d="M2.19623 52.8605C1.55614 52.8605 1.12199 53.2891 1.12199 53.9403C1.12199 54.5859 1.55614 55.0201 2.19623 55.0201C2.78622 55.0201 3.20924 54.6527 3.25377 54.1128L2.54132 54.0906C2.51349 54.3522 2.40217 54.4746 2.19623 54.4746C1.96802 54.4746 1.82887 54.2854 1.82887 53.9403C1.82887 53.5896 1.96802 53.4004 2.19623 53.4004C2.38547 53.4004 2.50236 53.5395 2.53575 53.7789L3.24263 53.7455C3.19254 53.2167 2.76953 52.8605 2.19623 52.8605ZM0.120117 53.9403C0.120117 52.8104 1.0385 51.892 2.17397 51.892C3.30943 51.892 4.22781 52.8104 4.22781 53.9403C4.22781 55.0813 3.30943 55.9997 2.17397 55.9997C1.0385 55.9997 0.120117 55.0813 0.120117 53.9403ZM0.637754 53.9403C0.637754 54.7863 1.3335 55.4876 2.17397 55.4876C3.01443 55.4876 3.71574 54.7863 3.71574 53.9403C3.71574 53.1054 3.01443 52.4041 2.17397 52.4041C1.3335 52.4041 0.637754 53.1054 0.637754 53.9403Z" fill="#E9E9E9"/>
<path d="M4.74319 53.2946C4.77658 52.4764 5.42224 51.892 6.35176 51.892C7.24232 51.892 7.8824 52.4152 7.8824 53.1443C7.8824 53.7789 7.3759 54.1017 6.87496 54.3744C6.73581 54.4523 6.09016 54.7752 6.05676 55.059H7.8824V55.9329H4.74319C4.74319 54.7807 5.26639 54.1852 6.16251 53.7121C6.55213 53.4894 6.76364 53.3503 6.76364 53.1276C6.76364 52.9217 6.59666 52.7658 6.35176 52.7658C6.07346 52.7658 5.90091 52.9718 5.85082 53.3558L4.74319 53.2946Z" fill="#E9E9E9"/>
<path d="M10.1689 56.0219C9.02791 56.0219 8.40452 55.1871 8.40452 53.9625C8.40452 52.738 9.02791 51.892 10.1689 51.892C11.3044 51.892 11.9278 52.738 11.9278 53.9625C11.9278 55.1871 11.3044 56.0219 10.1689 56.0219ZM9.52328 53.9625C9.52328 54.7418 9.74592 55.1481 10.1689 55.1481C10.5864 55.1481 10.809 54.7418 10.809 53.9625C10.809 53.1777 10.5864 52.7658 10.1689 52.7658C9.74592 52.7658 9.52328 53.1777 9.52328 53.9625Z" fill="#E9E9E9"/>
<path d="M12.4671 53.2946C12.5005 52.4764 13.1461 51.892 14.0756 51.892C14.9662 51.892 15.6063 52.4152 15.6063 53.1443C15.6063 53.7789 15.0998 54.1017 14.5988 54.3744C14.4597 54.4523 13.814 54.7752 13.7806 55.059H15.6063V55.9329H12.4671C12.4671 54.7807 12.9903 54.1852 13.8864 53.7121C14.276 53.4894 14.4875 53.3503 14.4875 53.1276C14.4875 52.9217 14.3206 52.7658 14.0756 52.7658C13.7973 52.7658 13.6248 52.9718 13.5747 53.3558L12.4671 53.2946Z" fill="#E9E9E9"/>
<path d="M19.2064 51.981V54.4078H19.6183V55.2872H19.2064V55.9329H18.1099V55.2872H16.1451V54.4134L17.8539 51.981H19.2064ZM17.2973 54.4078H18.1099V53.2724L17.2973 54.4078Z" fill="#E9E9E9"/>
</svg>
