<svg width="27" height="26" viewBox="0 0 27 26" fill="none" xmlns="http://www.w3.org/2000/svg">
<path d="M13.4883 0.235353C6.24316 0.232423 0.375 6.09766 0.375 13.3369C0.375 19.0615 4.0459 23.9277 9.1582 25.7148C9.84668 25.8877 9.74121 25.3984 9.74121 25.0645V22.7939C5.76563 23.2598 5.60449 20.6289 5.33789 20.1895C4.79883 19.2695 3.52441 19.0352 3.90527 18.5957C4.81055 18.1299 5.7334 18.7129 6.80273 20.292C7.57617 21.4375 9.08496 21.2441 9.84961 21.0537C10.0166 20.3652 10.374 19.75 10.8662 19.2725C6.74707 18.5342 5.03027 16.0205 5.03027 13.0322C5.03027 11.582 5.50781 10.249 6.44531 9.17383C5.84766 7.40137 6.50098 5.88379 6.58887 5.6582C8.29102 5.50586 10.0605 6.87695 10.1982 6.98535C11.165 6.72461 12.2695 6.58692 13.5059 6.58692C14.748 6.58692 15.8555 6.73047 16.8311 6.99414C17.1621 6.74219 18.8027 5.56445 20.3848 5.70801C20.4697 5.93359 21.1084 7.41602 20.5459 9.16504C21.4951 10.2432 21.9785 11.5879 21.9785 13.041C21.9785 16.0352 20.25 18.5518 16.1191 19.2783C16.473 19.6263 16.7539 20.0412 16.9455 20.499C17.1372 20.9567 17.2357 21.4481 17.2354 21.9443V25.2402C17.2588 25.5039 17.2354 25.7646 17.6748 25.7646C22.8633 24.0156 26.5986 19.1143 26.5986 13.3398C26.5986 6.09766 20.7275 0.235353 13.4883 0.235353Z" fill="#7AAE0C"/>
</svg>
