<svg width="25" height="24" viewBox="0 0 25 24" fill="none" xmlns="http://www.w3.org/2000/svg">
<path d="M23.2812 0.28125H1.71875C1.2002 0.28125 0.78125 0.700195 0.78125 1.21875V22.7812C0.78125 23.2998 1.2002 23.7188 1.71875 23.7188H23.2812C23.7998 23.7188 24.2188 23.2998 24.2188 22.7812V1.21875C24.2188 0.700195 23.7998 0.28125 23.2812 0.28125ZM7.7334 20.2529H4.25586V9.06738H7.7334V20.2529ZM5.99609 7.53809C5.59744 7.53809 5.20774 7.41987 4.87627 7.19839C4.5448 6.97691 4.28646 6.66211 4.1339 6.29381C3.98134 5.9255 3.94143 5.52023 4.0192 5.12923C4.09697 4.73824 4.28894 4.37909 4.57083 4.0972C4.85272 3.81531 5.21187 3.62334 5.60286 3.54557C5.99386 3.46779 6.39913 3.50771 6.76744 3.66027C7.13575 3.81282 7.45054 4.07117 7.67202 4.40264C7.8935 4.73411 8.01172 5.12381 8.01172 5.52246C8.00879 6.63574 7.10645 7.53809 5.99609 7.53809ZM20.7529 20.2529H17.2783V14.8125C17.2783 13.5146 17.2549 11.8477 15.4707 11.8477C13.6631 11.8477 13.3848 13.2598 13.3848 14.7188V20.2529H9.91309V9.06738H13.2471V10.5967H13.2939C13.7568 9.71777 14.8906 8.78906 16.584 8.78906C20.1055 8.78906 20.7529 11.1064 20.7529 14.1182V20.2529Z" fill="#7AAE0C"/>
</svg>
